<?xml version="1.0" encoding="utf-8"?>
<!-- Generator: Adobe Illustrator 19.1.0, SVG Export Plug-In . SVG Version: 6.00 Build 0)  -->
<svg version="1.1" id="Ebene_1" xmlns="http://www.w3.org/2000/svg" xmlns:xlink="http://www.w3.org/1999/xlink" x="0px" y="0px"
	 viewBox="0 0 89 89" enable-background="new 0 0 89 89" xml:space="preserve">
<g>
	<path d="M44.3,88.4c-24.4,0-44.2-19.8-44.2-44.2c0-24.4,19.8-44.2,44.2-44.2c24.4,0,44.2,19.8,44.2,44.2
		C88.5,68.6,68.6,88.4,44.3,88.4z M44.3,2.3C21.2,2.3,2.4,21.1,2.4,44.2c0,23.1,18.8,41.9,41.9,41.9s41.9-18.8,41.9-41.9
		C86.2,21.1,67.4,2.3,44.3,2.3z"/>
	<path d="M74.8,32.4c1-1.1,1.5-2.5-1-5c-2.3-2.3-5.1-5.1-7.5-7.5c-2.5-2.5-3.9-2-5-1c-2.1,2-8.7,8.4-10.2,10.2
		c-1.5,1.8-2,2.6-2.1,4.4c-0.1,1.8-0.2,10.4-0.2,10.4l0,0L37.6,55.4c-0.5-0.4-1.3-0.2-1.9,0.4L24,66.8c-0.6,0.6-0.7,1.6,0,2.2
		l0.8,0.8c0.6,0.6,1.6,0.6,2.2,0L38,58c0.5-0.6,0.7-1.3,0.4-1.8l11.3-11.3c0.6,0,8.7-0.1,10.5-0.2c1.8-0.1,2.6-0.6,4.4-2.1
		C66.4,41.1,72.8,34.5,74.8,32.4z M54.9,33.4c-0.8,0.8-1.9,1-2.5,0.4c-0.6-0.6-0.4-1.7,0.4-2.5l8-8c0.8-0.8,1.9-1,2.5-0.4
		c0.6,0.6,0.4,1.7-0.4,2.5L54.9,33.4z M26.7,68.4c-0.4,0.4-0.9,0.4-1.3,0c-0.4-0.4-0.3-0.9,0-1.3c0.4-0.4,1-0.4,1.3,0
		C27,67.5,27,68.1,26.7,68.4z M58.5,37.1c-0.8,0.8-1.9,1-2.5,0.4c-0.6-0.6-0.4-1.7,0.4-2.5l8-8c0.8-0.8,1.9-1,2.5-0.4
		c0.6,0.6,0.4,1.7-0.4,2.5L58.5,37.1z M62.2,40.7c-0.8,0.8-1.9,1-2.5,0.4c-0.6-0.6-0.4-1.7,0.4-2.5l8-8c0.8-0.8,1.9-1,2.5-0.4
		c0.6,0.6,0.4,1.7-0.4,2.5L62.2,40.7z"/>
	<path d="M19.4,23.1c11.2,8,7.3,9.8,7.3,9.8l0,0c-1,0.4-4,0.4-10.3-8.6c0,0,5.2,10.8,9,13c3.2,1.8,4.8,1.2,5.8,0.4l17,18.4
		c-0.4,0.5-0.2,1.3,0.4,1.9l11.1,11.7c0.6,0.6,1.6,0.7,2.2,0l0.8-0.8c0.6-0.6,0.6-1.6,0-2.2l-11.8-11c-0.6-0.5-1.3-0.7-1.8-0.4
		L31.9,37c0.8-1,1.4-2.7-0.4-5.8C29.3,27.4,19.4,23.1,19.4,23.1z M61.2,67.2c0.4,0.4,0.4,0.9,0,1.3c-0.4,0.4-0.9,0.3-1.3,0
		c-0.4-0.4-0.4-1,0-1.3C60.2,66.8,60.8,66.8,61.2,67.2z"/>
</g>
</svg>
